<svg xmlns="http://www.w3.org/2000/svg" width="1200" height="760" viewBox="0 0 1200 760">
  <defs>
    <linearGradient id="bg" x1="0" x2="1" y1="0" y2="1">
      <stop offset="0" stop-color="#10131b"/>
      <stop offset="0.5" stop-color="#202131"/>
      <stop offset="1" stop-color="#141016"/>
    </linearGradient>
    <linearGradient id="accent" x1="0" x2="1">
      <stop offset="0" stop-color="#8ab4ff"/>
      <stop offset="0.5" stop-color="#a78bfa"/>
      <stop offset="1" stop-color="#f6d7a7"/>
    </linearGradient>
  </defs>
  <rect width="1200" height="760" rx="44" fill="url(#bg)"/>
  <rect x="92" y="92" width="1016" height="420" rx="34" fill="#ffffff" opacity=".07" stroke="#ffffff" stroke-opacity=".14"/>
  <text x="144" y="166" fill="#fff" font-size="36" font-family="PingFang SC, Microsoft YaHei, Arial" font-weight="700">输入设计想法</text>
  <text x="144" y="238" fill="#fff" fill-opacity=".74" font-size="30" font-family="PingFang SC, Microsoft YaHei, Arial">现代奶油风主卧，到顶衣柜，隐藏灯带，真实室内摄影...</text>
  <rect x="144" y="316" width="210" height="54" rx="27" fill="#ffffff" opacity=".1"/>
  <text x="180" y="352" fill="#fff" fill-opacity=".8" font-size="24" font-family="PingFang SC, Microsoft YaHei, Arial">风格：奶油风</text>
  <rect x="382" y="316" width="190" height="54" rx="27" fill="#ffffff" opacity=".1"/>
  <text x="418" y="352" fill="#fff" fill-opacity=".8" font-size="24" font-family="PingFang SC, Microsoft YaHei, Arial">区域：主卧</text>
  <rect x="600" y="316" width="190" height="54" rx="27" fill="#ffffff" opacity=".1"/>
  <text x="636" y="352" fill="#fff" fill-opacity=".8" font-size="24" font-family="PingFang SC, Microsoft YaHei, Arial">数量：2 张</text>
  <circle cx="1010" cy="410" r="54" fill="url(#accent)"/>
  <text x="994" y="425" fill="#081018" font-size="38" font-family="Arial" font-weight="700">↑</text>
  <rect x="142" y="572" width="250" height="86" rx="24" fill="url(#accent)" opacity=".95"/>
  <text x="178" y="626" fill="#081018" font-size="30" font-family="PingFang SC, Microsoft YaHei, Arial" font-weight="700">优化提示词</text>
  <path d="M420 615h120" stroke="#fff" stroke-opacity=".42" stroke-width="6" stroke-linecap="round"/>
  <rect x="570" y="572" width="250" height="86" rx="24" fill="#ffffff" opacity=".1" stroke="#ffffff" stroke-opacity=".14"/>
  <text x="606" y="626" fill="#fff" font-size="30" font-family="PingFang SC, Microsoft YaHei, Arial">生成效果图</text>
  <path d="M850 615h120" stroke="#fff" stroke-opacity=".42" stroke-width="6" stroke-linecap="round"/>
  <rect x="1000" y="572" width="108" height="86" rx="24" fill="#ffffff" opacity=".1" stroke="#ffffff" stroke-opacity=".14"/>
  <text x="1024" y="626" fill="#fff" font-size="30" font-family="PingFang SC, Microsoft YaHei, Arial">保存</text>
</svg>
