<svg xmlns="http://www.w3.org/2000/svg" width="1200" height="760" viewBox="0 0 1200 760">
  <defs>
    <linearGradient id="bg" x1="0" x2="1" y1="0" y2="1">
      <stop offset="0" stop-color="#111827"/>
      <stop offset="0.55" stop-color="#080a0f"/>
      <stop offset="1" stop-color="#2b2233"/>
    </linearGradient>
    <linearGradient id="accent" x1="0" x2="1">
      <stop offset="0" stop-color="#8ab4ff"/>
      <stop offset="0.52" stop-color="#a78bfa"/>
      <stop offset="1" stop-color="#f6d7a7"/>
    </linearGradient>
  </defs>
  <rect width="1200" height="760" rx="44" fill="url(#bg)"/>
  <rect x="92" y="78" width="1016" height="426" rx="34" fill="#ffffff" opacity=".07" stroke="#ffffff" stroke-opacity=".14"/>
  <rect x="142" y="128" width="270" height="176" rx="22" fill="#f6d7a7" opacity=".82"/>
  <rect x="464" y="128" width="270" height="176" rx="22" fill="#8ab4ff" opacity=".72"/>
  <rect x="786" y="128" width="270" height="176" rx="22" fill="#a78bfa" opacity=".72"/>
  <circle cx="600" cy="392" r="58" fill="#fff"/>
  <path d="M584 360l58 32-58 34z" fill="#080a0f"/>
  <rect x="142" y="550" width="214" height="68" rx="34" fill="url(#accent)"/>
  <text x="180" y="594" fill="#081018" font-size="26" font-family="PingFang SC, Microsoft YaHei, Arial" font-weight="700">上传图片</text>
  <rect x="390" y="550" width="214" height="68" rx="34" fill="#ffffff" opacity=".1"/>
  <text x="428" y="594" fill="#fff" font-size="26" font-family="PingFang SC, Microsoft YaHei, Arial">镜头拼接</text>
  <rect x="638" y="550" width="214" height="68" rx="34" fill="#ffffff" opacity=".1"/>
  <text x="676" y="594" fill="#fff" font-size="26" font-family="PingFang SC, Microsoft YaHei, Arial">字幕音乐</text>
  <rect x="886" y="550" width="214" height="68" rx="34" fill="#ffffff" opacity=".1"/>
  <text x="924" y="594" fill="#fff" font-size="26" font-family="PingFang SC, Microsoft YaHei, Arial">生成视频</text>
  <path d="M356 584h34M604 584h34M852 584h34" stroke="#fff" stroke-opacity=".42" stroke-width="6" stroke-linecap="round"/>
  <text x="92" y="700" fill="#fff" fill-opacity=".72" font-size="28" font-family="PingFang SC, Microsoft YaHei, Arial">视频剪辑流程示意</text>
</svg>
